<?xml version="1.0" standalone="no"?>
<!DOCTYPE svg PUBLIC "-//W3C//DTD SVG 20010904//EN"
 "http://www.w3.org/TR/2001/REC-SVG-20010904/DTD/svg10.dtd">
<svg version="1.0" xmlns="http://www.w3.org/2000/svg"
 width="1024.000000pt" height="1024.000000pt" viewBox="0 0 1024.000000 1024.000000"
 preserveAspectRatio="xMidYMid meet">
<metadata>
Created by potrace 1.14, written by Peter Selinger 2001-2017
</metadata>
<g transform="translate(0.000000,1024.000000) scale(0.100000,-0.100000)"
fill="#000000" stroke="none">
<path d="M4869 10046 c-2 -2 -49 -7 -104 -10 -140 -9 -347 -34 -495 -60 -14
-3 -41 -7 -60 -10 -19 -3 -87 -17 -150 -31 -63 -15 -122 -28 -130 -30 -139
-31 -485 -141 -585 -186 -11 -5 -49 -20 -85 -33 -114 -43 -434 -196 -530 -255
-19 -11 -42 -24 -50 -28 -63 -29 -409 -255 -505 -330 -6 -4 -40 -30 -75 -58
-462 -353 -902 -848 -1201 -1350 -99 -167 -115 -194 -194 -353 -196 -392 -329
-781 -420 -1227 -9 -44 -18 -96 -21 -115 -2 -19 -6 -42 -9 -50 -4 -13 -13 -85
-40 -300 -27 -219 -27 -770 1 -1010 11 -96 14 -118 28 -220 46 -315 133 -658
248 -970 27 -74 55 -148 63 -165 7 -16 22 -50 33 -75 83 -195 183 -391 297
-585 51 -87 213 -332 252 -380 13 -16 27 -35 31 -40 218 -304 570 -666 899
-926 539 -426 1173 -739 1838 -908 118 -30 302 -69 359 -77 15 -2 35 -5 45 -8
9 -3 40 -8 70 -11 30 -4 61 -8 70 -10 9 -1 45 -6 81 -10 36 -4 77 -9 93 -10
229 -27 777 -27 997 0 19 3 58 7 85 10 28 4 61 8 75 10 14 2 50 7 80 10 262
32 816 180 1065 285 11 5 54 23 95 40 303 127 600 288 865 468 105 72 286 206
351 261 17 14 41 34 52 43 76 61 227 202 341 317 610 617 1036 1365 1261 2215
18 65 34 128 36 140 2 11 6 32 9 46 3 14 14 68 24 120 18 92 24 127 37 208 3
20 7 47 9 60 2 13 7 53 11 90 3 37 8 74 9 83 26 140 26 782 0 994 -2 17 -7 59
-10 95 -4 36 -9 74 -11 85 -3 11 -7 40 -9 65 -3 25 -7 54 -10 66 -3 12 -7 39
-11 60 -3 21 -17 91 -31 154 -13 63 -26 122 -28 130 -19 88 -72 273 -127 435
-182 543 -470 1065 -842 1525 -34 41 -65 80 -71 86 -172 193 -346 371 -474
484 -41 36 -79 70 -86 77 -7 6 -77 62 -156 123 -79 61 -151 117 -159 123 -8 7
-80 56 -160 108 -262 174 -535 319 -830 444 -132 55 -434 161 -545 190 -58 16
-204 53 -235 60 -8 2 -35 8 -60 14 -25 5 -56 12 -70 15 -14 2 -48 9 -77 15
-29 6 -74 13 -100 17 -26 3 -57 8 -68 10 -47 9 -123 19 -230 29 -38 4 -83 9
-100 12 -39 5 -650 14 -656 9z"/>
</g>
</svg>
